<svg width="56" height="56" viewBox="0 0 56 56" fill="none" xmlns="http://www.w3.org/2000/svg">
<g id="Eye">
<path id="Vector" d="M54.099 27.2913C54.0225 27.1184 52.1697 23.0081 48.0506 18.8891C42.5622 13.4006 35.63 10.5 28 10.5C20.37 10.5 13.4378 13.4006 7.94935 18.8891C3.83029 23.0081 1.96873 27.125 1.90092 27.2913C1.80141 27.5151 1.75 27.7573 1.75 28.0022C1.75 28.2471 1.80141 28.4893 1.90092 28.7131C1.97748 28.8859 3.83029 32.9941 7.94935 37.1131C13.4378 42.5994 20.37 45.5 28 45.5C35.63 45.5 42.5622 42.5994 48.0506 37.1131C52.1697 32.9941 54.0225 28.8859 54.099 28.7131C54.1985 28.4893 54.25 28.2471 54.25 28.0022C54.25 27.7573 54.1985 27.5151 54.099 27.2913ZM28 42C21.2669 42 15.3847 39.5522 10.5153 34.7266C8.51733 32.7396 6.81751 30.474 5.46873 28C6.81715 25.5258 8.517 23.2601 10.5153 21.2734C15.3847 16.4478 21.2669 14 28 14C34.7331 14 40.6153 16.4478 45.4847 21.2734C47.4865 23.2596 49.1901 25.5253 50.5422 28C48.965 30.9444 42.094 42 28 42ZM28 17.5C25.9233 17.5 23.8932 18.1158 22.1665 19.2696C20.4398 20.4233 19.094 22.0632 18.2992 23.9818C17.5045 25.9004 17.2966 28.0116 17.7017 30.0484C18.1069 32.0852 19.1069 33.9562 20.5754 35.4246C22.0438 36.8931 23.9147 37.8931 25.9515 38.2982C27.9883 38.7034 30.0995 38.4955 32.0182 37.7007C33.9368 36.906 35.5767 35.5602 36.7304 33.8335C37.8842 32.1068 38.5 30.0767 38.5 28C38.4971 25.2161 37.3899 22.5471 35.4214 20.5786C33.4529 18.6101 30.7839 17.5029 28 17.5ZM28 35C26.6155 35 25.2621 34.5895 24.111 33.8203C22.9598 33.0511 22.0626 31.9579 21.5328 30.6788C21.003 29.3997 20.8644 27.9922 21.1345 26.6344C21.4046 25.2765 22.0713 24.0292 23.0502 23.0503C24.0292 22.0713 25.2765 21.4046 26.6343 21.1345C27.9922 20.8644 29.3997 21.003 30.6788 21.5328C31.9578 22.0627 33.0511 22.9599 33.8203 24.111C34.5894 25.2622 35 26.6155 35 28C35 29.8565 34.2625 31.637 32.9497 32.9497C31.637 34.2625 29.8565 35 28 35Z" fill="black"/>
</g>
</svg>
