<svg width="56" height="56" viewBox="0 0 56 56" fill="none" xmlns="http://www.w3.org/2000/svg">
<g id="HandHeart" clip-path="url(#clip0_474_112)">
<path id="Vector" d="M50.3847 30.8569C49.8124 30.4159 49.1564 30.0959 48.4565 29.9165C47.7567 29.7372 47.0276 29.7021 46.3137 29.8135C50.4219 25.666 52.5 21.5425 52.5 17.5C52.5 11.7097 47.8428 7.00002 42.1181 7.00002C40.5991 6.99048 39.0965 7.31354 37.7156 7.94653C36.3348 8.57951 35.1092 9.50707 34.125 10.6641C33.1408 9.50707 31.9152 8.57951 30.5344 7.94653C29.1535 7.31354 27.6509 6.99048 26.1319 7.00002C20.4072 7.00002 15.75 11.7097 15.75 17.5C15.75 19.9063 16.4587 22.2447 17.9506 24.7188C16.7288 25.0283 15.6137 25.6634 14.7241 26.5563L9.77594 31.5H3.5C2.57174 31.5 1.6815 31.8688 1.02513 32.5252C0.368749 33.1815 0 34.0718 0 35L0 43.75C0 44.6783 0.368749 45.5685 1.02513 46.2249C1.6815 46.8813 2.57174 47.25 3.5 47.25H26.25C26.3931 47.2501 26.5356 47.2325 26.6744 47.1975L40.6744 43.6975C40.7636 43.6763 40.8507 43.647 40.9347 43.61L49.4375 39.9919L49.5337 39.9481C50.3509 39.5398 51.0507 38.9302 51.5672 38.1766C52.0836 37.4231 52.3997 36.5505 52.4857 35.641C52.5717 34.7316 52.4248 33.8152 52.0587 32.9782C51.6927 32.1412 51.1196 31.4112 50.3934 30.8569H50.3847ZM26.1319 10.5C27.4873 10.4802 28.8178 10.8651 29.9533 11.6054C31.0888 12.3458 31.9777 13.408 32.5062 14.6563C32.6381 14.9772 32.8624 15.2518 33.1506 15.445C33.4388 15.6382 33.778 15.7413 34.125 15.7413C34.472 15.7413 34.8112 15.6382 35.0994 15.445C35.3876 15.2518 35.6119 14.9772 35.7437 14.6563C36.2723 13.408 37.1612 12.3458 38.2967 11.6054C39.4322 10.8651 40.7627 10.4802 42.1181 10.5C45.8478 10.5 49 13.7047 49 17.5C49 21.7678 45.5459 26.5956 39.0119 31.4781L36.5859 32.036C36.7989 31.1364 36.8054 30.2004 36.6052 29.298C36.4049 28.3956 36.003 27.5502 35.4295 26.8252C34.856 26.1002 34.1259 25.5144 33.2938 25.1117C32.4618 24.7091 31.5494 24.4999 30.625 24.5H22.0237C20.1359 21.9538 19.25 19.7138 19.25 17.5C19.25 13.7047 22.4022 10.5 26.1319 10.5ZM3.5 35H8.75V43.75H3.5V35ZM48.0003 36.796L39.6878 40.3353L26.0312 43.75H12.25V33.9741L17.2003 29.026C17.5241 28.6995 17.9096 28.4407 18.3343 28.2646C18.7591 28.0885 19.2146 27.9986 19.6744 28H30.625C31.3212 28 31.9889 28.2766 32.4812 28.7689C32.9734 29.2612 33.25 29.9288 33.25 30.625C33.25 31.3212 32.9734 31.9889 32.4812 32.4812C31.9889 32.9735 31.3212 33.25 30.625 33.25H24.5C24.0359 33.25 23.5907 33.4344 23.2626 33.7626C22.9344 34.0908 22.75 34.5359 22.75 35C22.75 35.4642 22.9344 35.9093 23.2626 36.2375C23.5907 36.5656 24.0359 36.75 24.5 36.75H31.5C31.6317 36.7497 31.763 36.735 31.8916 36.7063L46.5478 33.3353L46.6156 33.3178C47.063 33.1936 47.5406 33.2393 47.9563 33.446C48.3721 33.6527 48.6968 34.0059 48.8678 34.4375C49.0389 34.8692 49.0442 35.3489 48.8828 35.7843C48.7215 36.2197 48.4048 36.58 47.9937 36.796H48.0003Z" fill="black"/>
</g>
<defs>
<clipPath id="clip0_474_112">
<rect width="56" height="56" fill="white"/>
</clipPath>
</defs>
</svg>
