<svg width="56" height="56" viewBox="0 0 56 56" fill="none" xmlns="http://www.w3.org/2000/svg">
<g id="Target">
<path id="Vector" d="M48.5341 18.1913C50.9625 23.2702 51.4235 29.0687 49.8282 34.4675C48.2328 39.8664 44.6941 44.4829 39.8951 47.4261C35.0961 50.3693 29.377 51.4306 23.8416 50.405C18.3061 49.3795 13.3468 46.3399 9.92063 41.8729C6.4945 37.4058 4.84449 31.828 5.28905 26.216C5.7336 20.6039 8.24121 15.3554 12.3279 11.4835C16.4146 7.6116 21.7907 5.39071 27.4185 5.24948C33.0464 5.10825 38.5271 7.0567 42.8029 10.7188L47.7619 5.75752C48.0903 5.42915 48.5357 5.24467 49.0001 5.24467C49.4644 5.24467 49.9098 5.42915 50.2382 5.75752C50.5666 6.08589 50.751 6.53125 50.751 6.99564C50.751 7.46003 50.5666 7.9054 50.2382 8.23377L29.2382 29.2338C28.9098 29.5621 28.4644 29.7466 28.0001 29.7466C27.5357 29.7466 27.0903 29.5621 26.7619 29.2338C26.4336 28.9054 26.2491 28.46 26.2491 27.9956C26.2491 27.5313 26.4336 27.0859 26.7619 26.7575L32.8257 20.6938C31.1823 19.6069 29.2203 19.1065 27.2571 19.2735C25.294 19.4405 23.4446 20.2652 22.0085 21.6141C20.5724 22.9629 19.6335 24.757 19.3439 26.7058C19.0543 28.6547 19.4309 30.6442 20.4127 32.3524C21.3946 34.0606 22.9242 35.3874 24.7539 36.1181C26.5837 36.8487 28.6065 36.9405 30.4948 36.3785C32.3832 35.8165 34.0267 34.6336 35.1591 33.0213C36.2916 31.409 36.8467 29.4618 36.7347 27.4947C36.7218 27.2649 36.7543 27.0348 36.8303 26.8175C36.9063 26.6002 37.0243 26.4001 37.1777 26.2284C37.3311 26.0568 37.5167 25.917 37.7241 25.8171C37.9315 25.7173 38.1565 25.6592 38.3863 25.6463C38.8504 25.6202 39.3059 25.7795 39.6526 26.0892C39.8242 26.2426 39.964 26.4283 40.0639 26.6356C40.1637 26.843 40.2218 27.068 40.2347 27.2978C40.3943 30.082 39.5991 32.8373 37.9805 35.1084C36.3619 37.3794 34.0169 39.0301 31.3331 39.7878C28.6492 40.5455 25.7871 40.3648 23.2199 39.2755C20.6527 38.1862 18.534 36.2535 17.214 33.7969C15.894 31.3403 15.4517 28.5069 15.9602 25.7649C16.4687 23.0229 17.8976 20.5364 20.0107 18.7165C22.1238 16.8967 24.7947 15.8523 27.5818 15.7559C30.3689 15.6596 33.1054 16.5172 35.3391 18.1869L40.3157 13.2103C36.6687 10.1824 32.0316 8.60862 27.2949 8.79131C22.5583 8.97399 18.0562 10.9002 14.6532 14.2001C11.2503 17.5 9.18647 21.9407 8.85821 26.6695C8.52994 31.3983 9.96035 36.0816 12.8747 39.82C15.7891 43.5584 19.9819 46.0882 24.6478 46.9236C29.3138 47.759 34.1239 46.8411 38.1543 44.3461C42.1847 41.8511 45.1512 37.955 46.484 33.4061C47.8168 28.8572 47.422 23.9762 45.3754 19.7006C45.1752 19.2818 45.1497 18.8005 45.3043 18.3628C45.459 17.9251 45.7812 17.5667 46.2001 17.3666C46.6189 17.1664 47.1002 17.1409 47.5379 17.2955C47.9756 17.4502 48.334 17.7724 48.5341 18.1913Z" fill="black"/>
</g>
</svg>
