<svg width="31" height="32" viewBox="0 0 31 32" fill="none" xmlns="http://www.w3.org/2000/svg">
<g id="Cycle">
<path d="M5.6168 14.963L13.5698 19.7752C13.6811 19.8425 13.7707 19.9425 13.8272 20.0627C13.8837 20.1828 13.9046 20.3176 13.8872 20.4501C13.8698 20.5826 13.8149 20.7067 13.7296 20.8068C13.6442 20.9069 13.5321 20.9784 13.4075 21.0124L10.278 21.8677C11.7162 26.4607 15.4414 28.8612 16.5922 29.5064C16.7729 29.6077 16.9183 29.7656 17.0077 29.9576C17.097 30.1496 17.1256 30.3659 17.0896 30.5758C17.0536 30.7857 16.9547 30.9784 16.8069 31.1266C16.6592 31.2748 16.4702 31.3709 16.2669 31.4011C13.6515 31.7919 10.8436 31.0163 8.36067 29.2167C6.29845 27.7221 4.70617 25.6555 3.99392 23.5851L0.817255 24.4532C0.692704 24.4874 0.561189 24.4824 0.439361 24.4389C0.317532 24.3955 0.210868 24.3155 0.132872 24.2091C0.0548755 24.1027 0.00905422 23.9747 0.00120862 23.8412C-0.00663697 23.7078 0.023846 23.5749 0.0887985 23.4595L4.72604 15.2064C4.76909 15.1297 4.82629 15.0625 4.89437 15.0088C4.96245 14.955 5.04007 14.9157 5.1228 14.8931C5.20553 14.8705 5.29174 14.865 5.3765 14.877C5.46127 14.889 5.54292 14.9182 5.6168 14.963Z" fill="#549431"/>
<path d="M26.0968 10.2238L17.9541 14.6813C17.8402 14.7438 17.711 14.7697 17.5829 14.7559C17.4548 14.7421 17.3335 14.6892 17.2343 14.6038C17.1352 14.5184 17.0627 14.4044 17.026 14.2763C16.9894 14.1481 16.9902 14.0115 17.0283 13.8839L17.9846 10.6756C13.4679 9.51211 9.53405 11.5225 8.39766 12.1945C8.21919 12.3001 8.01317 12.3446 7.80892 12.3217C7.60467 12.2988 7.41258 12.2096 7.26001 12.0668C7.10744 11.924 7.00215 11.7349 6.95913 11.5265C6.91611 11.318 6.93755 11.1007 7.0204 10.9057C8.08451 8.39577 10.2043 6.33345 12.9895 5.09905C15.3027 4.07376 17.835 3.76494 19.9049 4.23313L20.8756 0.976425C20.9136 0.848677 20.9872 0.735494 21.0872 0.651202C21.1872 0.566911 21.3091 0.515302 21.4373 0.502909C21.5656 0.490517 21.6945 0.517897 21.8078 0.581585C21.9211 0.645273 22.0136 0.742404 22.0736 0.860682L26.369 9.31063C26.409 9.38913 26.4336 9.47503 26.4416 9.56343C26.4495 9.65182 26.4406 9.74097 26.4153 9.82578C26.39 9.91059 26.3489 9.9894 26.2942 10.0577C26.2396 10.126 26.1725 10.1825 26.0968 10.2238Z" fill="#549431"/>
<path d="M20.471 30.7634V21.2099C20.471 21.0762 20.5091 20.9455 20.5807 20.8343C20.6522 20.7231 20.7539 20.6365 20.873 20.5853C20.992 20.5342 21.123 20.5208 21.2493 20.547C21.3756 20.5731 21.4917 20.6376 21.5827 20.7322L23.871 23.1068C26.97 19.5039 27.092 14.9552 27.0494 13.5986C27.0427 13.3856 27.1009 13.1757 27.2157 12.9989C27.3305 12.8221 27.4962 12.6875 27.6891 12.614C27.882 12.5406 28.0922 12.5322 28.29 12.59C28.4877 12.6478 28.6629 12.7688 28.7905 12.9359C30.4333 15.0836 31.202 17.9915 30.9546 21.1239C30.7491 23.7254 29.8308 26.1938 28.466 27.8753L30.7888 30.2858C30.88 30.3802 30.9421 30.5006 30.9673 30.6317C30.9925 30.7628 30.9796 30.8987 30.9304 31.0223C30.8811 31.1458 30.7976 31.2513 30.6904 31.3256C30.5833 31.3998 30.4574 31.4394 30.3285 31.4393H21.1224C21.0368 31.4394 20.9521 31.4219 20.8731 31.388C20.794 31.354 20.7222 31.3043 20.6617 31.2415C20.6012 31.1787 20.5532 31.1042 20.5205 31.0222C20.4878 30.9401 20.471 30.8522 20.471 30.7634Z" fill="#549431"/>
</g>
</svg>
