<svg width="40" height="30" viewBox="0 0 40 30" fill="none" xmlns="http://www.w3.org/2000/svg">
<path d="M16.6133 24.2734V29H4.25V24.2734H16.6133ZM6.02734 0.5625V29H0.304688V0.5625H6.02734ZM14.9531 12.0859V16.6758H4.25V12.0859H14.9531ZM16.5742 0.5625V5.30859H4.25V0.5625H16.5742ZM33.5078 19.5273H39.1914C39.1133 21.6628 38.6836 23.4661 37.9023 24.9375C37.1211 26.3958 36.0078 27.5026 34.5625 28.2578C33.1302 29.013 31.3984 29.3906 29.3672 29.3906C27.7917 29.3906 26.3919 29.1302 25.168 28.6094C23.944 28.0755 22.9023 27.2943 22.043 26.2656C21.1836 25.237 20.5326 23.9674 20.0898 22.457C19.6602 20.9336 19.4453 19.1823 19.4453 17.2031V12.3789C19.4453 10.3997 19.6732 8.64844 20.1289 7.125C20.5977 5.60156 21.2617 4.32552 22.1211 3.29688C22.9935 2.25521 24.0417 1.47396 25.2656 0.953125C26.5026 0.419271 27.8958 0.152344 29.4453 0.152344C31.5156 0.152344 33.2474 0.542969 34.6406 1.32422C36.0339 2.10547 37.1081 3.24479 37.8633 4.74219C38.6315 6.22656 39.0938 8.04297 39.25 10.1914H33.5469C33.5078 8.83724 33.3516 7.77604 33.0781 7.00781C32.8177 6.22656 32.401 5.67969 31.8281 5.36719C31.2552 5.04167 30.4609 4.87891 29.4453 4.87891C28.6901 4.87891 28.0391 5.01562 27.4922 5.28906C26.9453 5.54948 26.4961 5.97266 26.1445 6.55859C25.793 7.14453 25.5326 7.91276 25.3633 8.86328C25.207 9.8138 25.1289 10.9727 25.1289 12.3398V17.2031C25.1289 18.5443 25.2005 19.6901 25.3438 20.6406C25.487 21.5781 25.7148 22.3464 26.0273 22.9453C26.3398 23.5443 26.763 23.9805 27.2969 24.2539C27.8438 24.5273 28.5339 24.6641 29.3672 24.6641C30.3307 24.6641 31.1055 24.5208 31.6914 24.2344C32.2904 23.9479 32.7331 23.4336 33.0195 22.6914C33.306 21.9492 33.4688 20.8945 33.5078 19.5273Z" fill="#549431"/>
</svg>
