<svg width="175" height="56" viewBox="0 0 175 56" fill="none" xmlns="http://www.w3.org/2000/svg">
  <path d="M93.75 33.25C93.75 32.7188 93.6875 32.25 93.5625 31.8438C93.4375 31.4271 93.2188 31.0521 92.9062 30.7188C92.5938 30.3854 92.1562 30.0677 91.5938 29.7656C91.0312 29.4635 90.3177 29.1562 89.4531 28.8438C88.5156 28.5104 87.6667 28.1406 86.9062 27.7344C86.1458 27.3177 85.4948 26.8438 84.9531 26.3125C84.4219 25.7812 84.0104 25.1719 83.7188 24.4844C83.4271 23.7969 83.2812 23.0104 83.2812 22.125C83.2812 21.2396 83.4323 20.4219 83.7344 19.6719C84.0469 18.9219 84.4844 18.2708 85.0469 17.7188C85.6198 17.1562 86.3073 16.7188 87.1094 16.4062C87.9115 16.0938 88.8073 15.9375 89.7969 15.9375C91.276 15.9375 92.5208 16.2656 93.5312 16.9219C94.5521 17.5677 95.3229 18.4167 95.8438 19.4688C96.3646 20.5104 96.625 21.625 96.625 22.8125H93.75C93.75 21.9583 93.6094 21.2031 93.3281 20.5469C93.0573 19.8802 92.6302 19.3594 92.0469 18.9844C91.474 18.599 90.724 18.4062 89.7969 18.4062C88.9635 18.4062 88.276 18.5677 87.7344 18.8906C87.2031 19.2135 86.8073 19.651 86.5469 20.2031C86.2969 20.7552 86.1719 21.3854 86.1719 22.0938C86.1719 22.5729 86.2552 23.0104 86.4219 23.4062C86.5885 23.7917 86.8438 24.151 87.1875 24.4844C87.5417 24.8177 87.9792 25.125 88.5 25.4062C89.0312 25.6875 89.6562 25.9583 90.375 26.2188C91.4896 26.5833 92.4427 26.9896 93.2344 27.4375C94.026 27.8854 94.6719 28.3906 95.1719 28.9531C95.6719 29.5052 96.0365 30.1354 96.2656 30.8438C96.5052 31.5417 96.625 32.3333 96.625 33.2188C96.625 34.1458 96.4688 34.9844 96.1562 35.7344C95.8542 36.4844 95.4115 37.125 94.8281 37.6562C94.2448 38.1875 93.5417 38.599 92.7188 38.8906C91.8958 39.1719 90.9688 39.3125 89.9375 39.3125C89.0417 39.3125 88.1615 39.1667 87.2969 38.875C86.4427 38.5833 85.6667 38.1458 84.9688 37.5625C84.2708 36.9792 83.7135 36.2604 83.2969 35.4062C82.8802 34.5417 82.6719 33.5417 82.6719 32.4062H85.5469C85.5469 33.1875 85.6615 33.8594 85.8906 34.4219C86.1198 34.974 86.4375 35.4323 86.8438 35.7969C87.25 36.1615 87.7135 36.4323 88.2344 36.6094C88.7656 36.776 89.3333 36.8594 89.9375 36.8594C90.7708 36.8594 91.4688 36.7135 92.0312 36.4219C92.6042 36.1302 93.0312 35.7135 93.3125 35.1719C93.6042 34.6302 93.75 33.9896 93.75 33.25ZM103.938 37.25L107.703 22.0938H110.641L105.062 41.6094C104.927 42.026 104.745 42.474 104.516 42.9531C104.297 43.4427 104.016 43.9062 103.672 44.3438C103.328 44.7812 102.917 45.1354 102.438 45.4062C101.958 45.6875 101.396 45.8281 100.75 45.8281C100.552 45.8281 100.297 45.7969 99.9844 45.7344C99.6823 45.6719 99.4635 45.6198 99.3281 45.5781V43.2344C99.3906 43.2448 99.4896 43.2552 99.625 43.2656C99.7604 43.2865 99.8594 43.2969 99.9219 43.2969C100.464 43.2969 100.922 43.2083 101.297 43.0312C101.682 42.8646 102.01 42.5781 102.281 42.1719C102.552 41.776 102.781 41.2292 102.969 40.5312L103.938 37.25ZM101.5 22.0938L104.859 35.2188L105.578 38.2656L103.609 39.3281L98.4844 22.0938H101.5ZM121.562 34.6719C121.562 34.2448 121.458 33.8698 121.25 33.5469C121.042 33.224 120.698 32.9115 120.219 32.6094C119.75 32.3073 119.115 31.9844 118.312 31.6406C117.531 31.3177 116.828 31 116.203 30.6875C115.589 30.3646 115.068 30.0156 114.641 29.6406C114.214 29.2656 113.885 28.8333 113.656 28.3438C113.438 27.8438 113.328 27.2552 113.328 26.5781C113.328 25.901 113.453 25.276 113.703 24.7031C113.964 24.1198 114.328 23.6094 114.797 23.1719C115.266 22.7344 115.828 22.3958 116.484 22.1562C117.141 21.9062 117.875 21.7812 118.688 21.7812C119.844 21.7812 120.828 22.0052 121.641 22.4531C122.453 22.901 123.073 23.5156 123.5 24.2969C123.938 25.0677 124.156 25.9375 124.156 26.9062H121.406C121.406 26.4375 121.302 25.9948 121.094 25.5781C120.885 25.1615 120.578 24.8229 120.172 24.5625C119.766 24.2917 119.271 24.1562 118.688 24.1562C118.073 24.1562 117.573 24.2656 117.188 24.4844C116.802 24.7031 116.521 24.9896 116.344 25.3438C116.177 25.6875 116.094 26.0677 116.094 26.4844C116.094 26.7969 116.135 27.0677 116.219 27.2969C116.312 27.5156 116.469 27.724 116.688 27.9219C116.906 28.1094 117.203 28.3073 117.578 28.5156C117.964 28.7135 118.453 28.9427 119.047 29.2031C120.193 29.651 121.156 30.1042 121.938 30.5625C122.719 31.0208 123.312 31.5573 123.719 32.1719C124.125 32.7865 124.328 33.5469 124.328 34.4531C124.328 35.1927 124.193 35.8646 123.922 36.4688C123.661 37.0625 123.286 37.5729 122.797 38C122.307 38.4271 121.719 38.7552 121.031 38.9844C120.354 39.2031 119.594 39.3125 118.75 39.3125C117.479 39.3125 116.401 39.0625 115.516 38.5625C114.641 38.0521 113.974 37.3906 113.516 36.5781C113.068 35.7552 112.844 34.875 112.844 33.9375H115.609C115.641 34.7292 115.818 35.3438 116.141 35.7812C116.474 36.2188 116.875 36.5208 117.344 36.6875C117.812 36.8542 118.281 36.9375 118.75 36.9375C119.365 36.9375 119.88 36.849 120.297 36.6719C120.714 36.4844 121.026 36.2188 121.234 35.875C121.453 35.5312 121.562 35.1302 121.562 34.6719ZM134.125 22.0938V24.3125H126.234V22.0938H134.125ZM128.812 17.9844H131.578V34.8125C131.578 35.3854 131.646 35.8177 131.781 36.1094C131.927 36.401 132.109 36.5938 132.328 36.6875C132.547 36.7812 132.781 36.8281 133.031 36.8281C133.219 36.8281 133.427 36.8073 133.656 36.7656C133.885 36.7135 134.042 36.6719 134.125 36.6406L134.109 39C133.922 39.0729 133.672 39.1406 133.359 39.2031C133.047 39.276 132.651 39.3125 132.172 39.3125C131.578 39.3125 131.026 39.1719 130.516 38.8906C130.005 38.6094 129.594 38.1406 129.281 37.4844C128.969 36.8177 128.812 35.9219 128.812 34.7969V17.9844ZM143.469 39.3125C142.458 39.3125 141.547 39.1615 140.734 38.8594C139.922 38.5573 139.229 38.099 138.656 37.4844C138.083 36.8594 137.646 36.0729 137.344 35.125C137.042 34.1771 136.891 33.0573 136.891 31.7656V29.8594C136.891 28.3698 137.062 27.1094 137.406 26.0781C137.76 25.0469 138.234 24.2188 138.828 23.5938C139.422 22.9583 140.094 22.5 140.844 22.2188C141.594 21.9271 142.365 21.7812 143.156 21.7812C144.219 21.7812 145.125 21.9531 145.875 22.2969C146.625 22.6406 147.234 23.151 147.703 23.8281C148.172 24.5052 148.516 25.3385 148.734 26.3281C148.964 27.3177 149.078 28.4583 149.078 29.75V31.3594H138.516V29H146.312V28.6094C146.271 27.7344 146.151 26.9635 145.953 26.2969C145.766 25.6302 145.453 25.1094 145.016 24.7344C144.578 24.349 143.958 24.1562 143.156 24.1562C142.646 24.1562 142.172 24.2448 141.734 24.4219C141.307 24.5885 140.938 24.8854 140.625 25.3125C140.323 25.7292 140.083 26.3073 139.906 27.0469C139.74 27.7865 139.656 28.724 139.656 29.8594V31.7656C139.656 32.6719 139.74 33.4531 139.906 34.1094C140.083 34.7552 140.339 35.2917 140.672 35.7188C141.016 36.1354 141.432 36.4479 141.922 36.6562C142.422 36.8542 142.99 36.9531 143.625 36.9531C144.552 36.9531 145.318 36.776 145.922 36.4219C146.526 36.0573 147.052 35.5938 147.5 35.0312L148.953 36.7656C148.651 37.1927 148.255 37.6042 147.766 38C147.286 38.3854 146.693 38.7031 145.984 38.9531C145.286 39.1927 144.448 39.3125 143.469 39.3125ZM155.188 25.4531V39H152.438V22.0938H155.031L155.188 25.4531ZM154.625 29.9062L153.344 29.8594C153.333 28.7031 153.448 27.6354 153.688 26.6562C153.927 25.6667 154.286 24.8073 154.766 24.0781C155.255 23.349 155.865 22.7865 156.594 22.3906C157.333 21.9844 158.193 21.7812 159.172 21.7812C159.818 21.7812 160.417 21.8958 160.969 22.125C161.531 22.3438 162.021 22.6927 162.438 23.1719C162.854 23.651 163.177 24.2656 163.406 25.0156C163.646 25.7656 163.766 26.6719 163.766 27.7344V39H161V27.875C161 26.9896 160.88 26.2812 160.641 25.75C160.411 25.2188 160.083 24.8333 159.656 24.5938C159.229 24.3438 158.719 24.2188 158.125 24.2188C157.448 24.2188 156.88 24.3698 156.422 24.6719C155.974 24.974 155.615 25.3906 155.344 25.9219C155.083 26.4531 154.896 27.0625 154.781 27.75C154.677 28.4271 154.625 29.1458 154.625 29.9062ZM163.734 28.3125L161.891 28.9062C161.88 27.9792 161.995 27.0885 162.234 26.2344C162.474 25.3802 162.828 24.6198 163.297 23.9531C163.776 23.2865 164.37 22.7604 165.078 22.375C165.786 21.9792 166.609 21.7812 167.547 21.7812C168.318 21.7812 169 21.901 169.594 22.1406C170.188 22.3802 170.688 22.75 171.094 23.25C171.51 23.7396 171.823 24.3698 172.031 25.1406C172.24 25.9115 172.344 26.8281 172.344 27.8906V39H169.578V27.8594C169.578 26.9115 169.458 26.1771 169.219 25.6562C168.99 25.125 168.661 24.7552 168.234 24.5469C167.807 24.3281 167.297 24.2188 166.703 24.2188C166.224 24.2188 165.797 24.3281 165.422 24.5469C165.057 24.7656 164.75 25.0677 164.5 25.4531C164.25 25.8281 164.057 26.2604 163.922 26.75C163.797 27.2396 163.734 27.7604 163.734 28.3125Z" fill="#0F0F0F"/>
  <path d="M48.6168 26.963L56.5698 31.7752C56.6811 31.8425 56.7707 31.9425 56.8272 32.0627C56.8837 32.1828 56.9046 32.3176 56.8872 32.4501C56.8698 32.5826 56.8149 32.7067 56.7296 32.8068C56.6442 32.9069 56.5321 32.9784 56.4075 33.0124L53.278 33.8677C54.7162 38.4607 58.4414 40.8612 59.5922 41.5064C59.7729 41.6077 59.9183 41.7656 60.0077 41.9576C60.097 42.1496 60.1256 42.3659 60.0896 42.5758C60.0536 42.7857 59.9547 42.9784 59.8069 43.1266C59.6592 43.2748 59.4702 43.3709 59.2669 43.4011C56.6515 43.7919 53.8436 43.0163 51.3607 41.2167C49.2984 39.7221 47.7062 37.6555 46.9939 35.5851L43.8173 36.4532C43.6927 36.4874 43.5612 36.4824 43.4394 36.4389C43.3175 36.3955 43.2109 36.3155 43.1329 36.2091C43.0549 36.1027 43.0091 35.9747 43.0012 35.8412C42.9934 35.7078 43.0238 35.5749 43.0888 35.4595L47.726 27.2064C47.7691 27.1297 47.8263 27.0625 47.8944 27.0088C47.9625 26.955 48.0401 26.9157 48.1228 26.8931C48.2055 26.8705 48.2917 26.865 48.3765 26.877C48.4613 26.889 48.5429 26.9182 48.6168 26.963Z" fill="#549431"/>
  <path d="M69.0968 22.2238L60.9541 26.6813C60.8402 26.7438 60.711 26.7697 60.5829 26.7559C60.4548 26.7421 60.3335 26.6892 60.2343 26.6038C60.1352 26.5184 60.0627 26.4044 60.026 26.2763C59.9894 26.1481 59.9902 26.0115 60.0283 25.8839L60.9846 22.6756C56.4679 21.5121 52.5341 23.5225 51.3977 24.1945C51.2192 24.3001 51.0132 24.3446 50.8089 24.3217C50.6047 24.2988 50.4126 24.2096 50.26 24.0668C50.1074 23.924 50.0022 23.7349 49.9591 23.5265C49.9161 23.318 49.9376 23.1007 50.0204 22.9057C51.0845 20.3958 53.2043 18.3335 55.9895 17.099C58.3027 16.0738 60.835 15.7649 62.9049 16.2331L63.8756 12.9764C63.9136 12.8487 63.9872 12.7355 64.0872 12.6512C64.1872 12.5669 64.3091 12.5153 64.4373 12.5029C64.5656 12.4905 64.6945 12.5179 64.8078 12.5816C64.9211 12.6453 65.0136 12.7424 65.0736 12.8607L69.369 21.3106C69.409 21.3891 69.4336 21.475 69.4416 21.5634C69.4495 21.6518 69.4406 21.741 69.4153 21.8258C69.39 21.9106 69.3489 21.9894 69.2942 22.0577C69.2396 22.126 69.1725 22.1825 69.0968 22.2238Z" fill="#549431"/>
  <path d="M63.471 42.7634V33.2099C63.471 33.0762 63.5091 32.9455 63.5807 32.8343C63.6522 32.7231 63.7539 32.6365 63.873 32.5853C63.992 32.5342 64.123 32.5208 64.2493 32.547C64.3756 32.5731 64.4917 32.6376 64.5827 32.7322L66.871 35.1068C69.97 31.5039 70.092 26.9552 70.0494 25.5986C70.0427 25.3856 70.1009 25.1757 70.2157 24.9989C70.3305 24.8221 70.4962 24.6875 70.6891 24.614C70.882 24.5406 71.0922 24.5322 71.29 24.59C71.4877 24.6478 71.6629 24.7688 71.7905 24.9359C73.4333 27.0836 74.202 29.9915 73.9546 33.1239C73.7491 35.7254 72.8308 38.1938 71.466 39.8753L73.7888 42.2858C73.88 42.3802 73.9421 42.5006 73.9673 42.6317C73.9925 42.7628 73.9796 42.8987 73.9304 43.0223C73.8811 43.1458 73.7976 43.2513 73.6904 43.3256C73.5833 43.3998 73.4574 43.4394 73.3285 43.4393H64.1224C64.0368 43.4394 63.9521 43.4219 63.8731 43.388C63.794 43.354 63.7222 43.3043 63.6617 43.2415C63.6012 43.1787 63.5532 43.1042 63.5205 43.0222C63.4878 42.9401 63.471 42.8522 63.471 42.7634Z" fill="#549431"/>
  <path d="M18.6133 37.2734V42H6.25V37.2734H18.6133ZM8.02734 13.5625V42H2.30469V13.5625H8.02734ZM16.9531 25.0859V29.6758H6.25V25.0859H16.9531ZM18.5742 13.5625V18.3086H6.25V13.5625H18.5742ZM35.5078 32.5273H41.1914C41.1133 34.6628 40.6836 36.4661 39.9023 37.9375C39.1211 39.3958 38.0078 40.5026 36.5625 41.2578C35.1302 42.013 33.3984 42.3906 31.3672 42.3906C29.7917 42.3906 28.3919 42.1302 27.168 41.6094C25.944 41.0755 24.9023 40.2943 24.043 39.2656C23.1836 38.237 22.5326 36.9674 22.0898 35.457C21.6602 33.9336 21.4453 32.1823 21.4453 30.2031V25.3789C21.4453 23.3997 21.6732 21.6484 22.1289 20.125C22.5977 18.6016 23.2617 17.3255 24.1211 16.2969C24.9935 15.2552 26.0417 14.474 27.2656 13.9531C28.5026 13.4193 29.8958 13.1523 31.4453 13.1523C33.5156 13.1523 35.2474 13.543 36.6406 14.3242C38.0339 15.1055 39.1081 16.2448 39.8633 17.7422C40.6315 19.2266 41.0938 21.043 41.25 23.1914H35.5469C35.5078 21.8372 35.3516 20.776 35.0781 20.0078C34.8177 19.2266 34.401 18.6797 33.8281 18.3672C33.2552 18.0417 32.4609 17.8789 31.4453 17.8789C30.6901 17.8789 30.0391 18.0156 29.4922 18.2891C28.9453 18.5495 28.4961 18.9727 28.1445 19.5586C27.793 20.1445 27.5326 20.9128 27.3633 21.8633C27.207 22.8138 27.1289 23.9727 27.1289 25.3398V30.2031C27.1289 31.5443 27.2005 32.6901 27.3438 33.6406C27.487 34.5781 27.7148 35.3464 28.0273 35.9453C28.3398 36.5443 28.763 36.9805 29.2969 37.2539C29.8438 37.5273 30.5339 37.6641 31.3672 37.6641C32.3307 37.6641 33.1055 37.5208 33.6914 37.2344C34.2904 36.9479 34.7331 36.4336 35.0195 35.6914C35.306 34.9492 35.4688 33.8945 35.5078 32.5273Z" fill="#549431"/>
</svg>
